<svg xmlns="http://www.w3.org/2000/svg" viewBox="0 0 400 400" width="400" height="400">
  <defs>
    <linearGradient id="wallGrad" x1="0%" y1="0%" x2="100%" y2="100%">
      <stop offset="0%" style="stop-color:#2c3e50;stop-opacity:1" />
      <stop offset="100%" style="stop-color:#1a252f;stop-opacity:1" />
    </linearGradient>
    <linearGradient id="bgGrad" x1="0%" y1="0%" x2="100%" y2="100%">
      <stop offset="0%" style="stop-color:#f0f4e8;stop-opacity:1" />
      <stop offset="100%" style="stop-color:#e8edd8;stop-opacity:1" />
    </linearGradient>
    <filter id="shadow" x="-10%" y="-10%" width="120%" height="120%">
      <feDropShadow dx="1" dy="1" stdDeviation="1" flood-color="#00000044"/>
    </filter>
  </defs>

  <!-- Background -->
  <rect width="400" height="400" fill="url(#bgGrad)" rx="8"/>

  <!-- Maze walls (25px cells, 16x16 grid) -->
  <g fill="url(#wallGrad)" filter="url(#shadow)">
    <!-- Row 0 -->
    <rect x="0" y="0" width="25" height="25"/>
    <rect x="25" y="0" width="25" height="25"/>
    <rect x="50" y="0" width="25" height="25"/>
    <rect x="75" y="0" width="25" height="25"/>
    <rect x="100" y="0" width="25" height="25"/>
    <rect x="125" y="0" width="25" height="25"/>
    <rect x="150" y="0" width="25" height="25"/>
    <rect x="175" y="0" width="25" height="25"/>
    <rect x="200" y="0" width="25" height="25"/>
    <rect x="225" y="0" width="25" height="25"/>
    <rect x="250" y="0" width="25" height="25"/>
    <rect x="275" y="0" width="25" height="25"/>
    <rect x="300" y="0" width="25" height="25"/>
    <rect x="325" y="0" width="25" height="25"/>
    <rect x="350" y="0" width="25" height="25"/>
    <rect x="375" y="0" width="25" height="25"/>

    <!-- Row 1 -->
    <rect x="0" y="25" width="25" height="25"/>
    <rect x="50" y="25" width="25" height="25"/>
    <rect x="175" y="25" width="25" height="25"/>
    <rect x="375" y="25" width="25" height="25"/>

    <!-- Row 2 -->
    <rect x="0" y="50" width="25" height="25"/>
    <rect x="50" y="50" width="25" height="25"/>
    <rect x="75" y="50" width="25" height="25"/>
    <rect x="125" y="50" width="25" height="25"/>
    <rect x="175" y="50" width="25" height="25"/>
    <rect x="225" y="50" width="25" height="25"/>
    <rect x="250" y="50" width="25" height="25"/>
    <rect x="275" y="50" width="25" height="25"/>
    <rect x="325" y="50" width="25" height="25"/>
    <rect x="375" y="50" width="25" height="25"/>

    <!-- Row 3 -->
    <rect x="0" y="75" width="25" height="25"/>
    <rect x="125" y="75" width="25" height="25"/>
    <rect x="175" y="75" width="25" height="25"/>
    <rect x="375" y="75" width="25" height="25"/>

    <!-- Row 4 -->
    <rect x="0" y="100" width="25" height="25"/>
    <rect x="25" y="100" width="25" height="25"/>
    <rect x="50" y="100" width="25" height="25"/>
    <rect x="75" y="100" width="25" height="25"/>
    <rect x="125" y="100" width="25" height="25"/>
    <rect x="175" y="100" width="25" height="25"/>
    <rect x="225" y="100" width="25" height="25"/>
    <rect x="275" y="100" width="25" height="25"/>
    <rect x="300" y="100" width="25" height="25"/>
    <rect x="325" y="100" width="25" height="25"/>
    <rect x="375" y="100" width="25" height="25"/>

    <!-- Row 5 -->
    <rect x="0" y="125" width="25" height="25"/>
    <rect x="175" y="125" width="25" height="25"/>
    <rect x="225" y="125" width="25" height="25"/>
    <rect x="325" y="125" width="25" height="25"/>
    <rect x="375" y="125" width="25" height="25"/>

    <!-- Row 6 -->
    <rect x="0" y="150" width="25" height="25"/>
    <rect x="50" y="150" width="25" height="25"/>
    <rect x="75" y="150" width="25" height="25"/>
    <rect x="100" y="150" width="25" height="25"/>
    <rect x="125" y="150" width="25" height="25"/>
    <rect x="175" y="150" width="25" height="25"/>
    <rect x="225" y="150" width="25" height="25"/>
    <rect x="250" y="150" width="25" height="25"/>
    <rect x="275" y="150" width="25" height="25"/>
    <rect x="325" y="150" width="25" height="25"/>
    <rect x="375" y="150" width="25" height="25"/>

    <!-- Row 7 -->
    <rect x="0" y="175" width="25" height="25"/>
    <rect x="125" y="175" width="25" height="25"/>
    <rect x="275" y="175" width="25" height="25"/>
    <rect x="325" y="175" width="25" height="25"/>
    <rect x="375" y="175" width="25" height="25"/>

    <!-- Row 8 -->
    <rect x="0" y="200" width="25" height="25"/>
    <rect x="25" y="200" width="25" height="25"/>
    <rect x="50" y="200" width="25" height="25"/>
    <rect x="75" y="200" width="25" height="25"/>
    <rect x="125" y="200" width="25" height="25"/>
    <rect x="150" y="200" width="25" height="25"/>
    <rect x="175" y="200" width="25" height="25"/>
    <rect x="200" y="200" width="25" height="25"/>
    <rect x="225" y="200" width="25" height="25"/>
    <rect x="275" y="200" width="25" height="25"/>
    <rect x="325" y="200" width="25" height="25"/>
    <rect x="375" y="200" width="25" height="25"/>

    <!-- Row 9 -->
    <rect x="0" y="225" width="25" height="25"/>
    <rect x="225" y="225" width="25" height="25"/>
    <rect x="325" y="225" width="25" height="25"/>
    <rect x="375" y="225" width="25" height="25"/>

    <!-- Row 10 -->
    <rect x="0" y="250" width="25" height="25"/>
    <rect x="50" y="250" width="25" height="25"/>
    <rect x="75" y="250" width="25" height="25"/>
    <rect x="100" y="250" width="25" height="25"/>
    <rect x="125" y="250" width="25" height="25"/>
    <rect x="150" y="250" width="25" height="25"/>
    <rect x="175" y="250" width="25" height="25"/>
    <rect x="225" y="250" width="25" height="25"/>
    <rect x="250" y="250" width="25" height="25"/>
    <rect x="275" y="250" width="25" height="25"/>
    <rect x="325" y="250" width="25" height="25"/>
    <rect x="375" y="250" width="25" height="25"/>

    <!-- Row 11 -->
    <rect x="0" y="275" width="25" height="25"/>
    <rect x="175" y="275" width="25" height="25"/>
    <rect x="275" y="275" width="25" height="25"/>
    <rect x="325" y="275" width="25" height="25"/>
    <rect x="375" y="275" width="25" height="25"/>

    <!-- Row 12 -->
    <rect x="0" y="300" width="25" height="25"/>
    <rect x="25" y="300" width="25" height="25"/>
    <rect x="50" y="300" width="25" height="25"/>
    <rect x="75" y="300" width="25" height="25"/>
    <rect x="100" y="300" width="25" height="25"/>
    <rect x="125" y="300" width="25" height="25"/>
    <rect x="175" y="300" width="25" height="25"/>
    <rect x="225" y="300" width="25" height="25"/>
    <rect x="275" y="300" width="25" height="25"/>
    <rect x="375" y="300" width="25" height="25"/>

    <!-- Row 13 -->
    <rect x="0" y="325" width="25" height="25"/>
    <rect x="125" y="325" width="25" height="25"/>
    <rect x="175" y="325" width="25" height="25"/>
    <rect x="275" y="325" width="25" height="25"/>
    <rect x="325" y="325" width="25" height="25"/>
    <rect x="375" y="325" width="25" height="25"/>

    <!-- Row 14 -->
    <rect x="0" y="350" width="25" height="25"/>
    <rect x="50" y="350" width="25" height="25"/>
    <rect x="75" y="350" width="25" height="25"/>
    <rect x="225" y="350" width="25" height="25"/>
    <rect x="250" y="350" width="25" height="25"/>
    <rect x="275" y="350" width="25" height="25"/>
    <rect x="300" y="350" width="25" height="25"/>
    <rect x="325" y="350" width="25" height="25"/>
    <rect x="375" y="350" width="25" height="25"/>

    <!-- Row 15 -->
    <rect x="0" y="375" width="25" height="25"/>
    <rect x="25" y="375" width="25" height="25"/>
    <rect x="50" y="375" width="25" height="25"/>
    <rect x="75" y="375" width="25" height="25"/>
    <rect x="100" y="375" width="25" height="25"/>
    <rect x="125" y="375" width="25" height="25"/>
    <rect x="150" y="375" width="25" height="25"/>
    <rect x="175" y="375" width="25" height="25"/>
    <rect x="200" y="375" width="25" height="25"/>
    <rect x="225" y="375" width="25" height="25"/>
    <rect x="250" y="375" width="25" height="25"/>
    <rect x="275" y="375" width="25" height="25"/>
    <rect x="300" y="375" width="25" height="25"/>
    <rect x="325" y="375" width="25" height="25"/>
    <rect x="350" y="375" width="25" height="25"/>
    <rect x="375" y="375" width="25" height="25"/>
  </g>

  <!-- Start marker (top-left entrance area) -->
  <circle cx="37.5" cy="37.5" r="8" fill="#27ae60" stroke="#1e8449" stroke-width="2"/>
  <text x="37.5" y="42" font-family="Arial, sans-serif" font-size="11" font-weight="bold" fill="#1e8449" text-anchor="middle">S</text>

  <!-- End marker (bottom-right exit area) -->
  <circle cx="362.5" cy="362.5" r="8" fill="#e74c3c" stroke="#c0392b" stroke-width="2"/>
  <text x="362.5" y="367" font-family="Arial, sans-serif" font-size="11" font-weight="bold" fill="#c0392b" text-anchor="middle">E</text>

  <!-- Title -->
  <text x="200" y="20" font-family="Georgia, serif" font-size="18" font-weight="bold" fill="#2c3e50" text-anchor="middle" letter-spacing="2">THE LABYRINTH</text>

  <!-- Decorative corner accents -->
  <polygon points="8,8 20,8 8,20" fill="#2c3e50" opacity="0.3"/>
  <polygon points="392,8 380,8 392,20" fill="#2c3e50" opacity="0.3"/>
  <polygon points="8,392 20,392 8,380" fill="#2c3e50" opacity="0.3"/>
  <polygon points="392,392 380,392 392,380" fill="#2c3e50" opacity="0.3"/>
</svg>