<svg width="500" height="500" viewBox="0 0 500 500" xmlns="http://www.w3.org/2000/svg">
  <!-- Background Floor Tiles (using rect) -->
  <rect x="0" y="0" width="40" height="40" fill="#e0e0e0"/>
  <rect x="40" y="0" width="40" height="40" fill="#f5f5f5"/>
  <rect x="80" y="0" width="40" height="40" fill="#e0e0e0"/>
  <rect x="120" y="0" width="40" height="40" fill="#f5f5f5"/>
  
  <rect x="160" y="0" width="40" height="40" fill="#e0e0e0"/>
  <rect x="200" y="0" width="40" height="40" fill="#f5f5f5"/>
  <rect x="240" y="0" width="40" height="40" fill="#e0e0e0"/>
  <rect x="280" y="0" width="40" height="40" fill="#f5f5f5"/>

  <rect x="320" y="0" width="40" height="40" fill="#e0e0e0"/>
  <rect x="360" y="0" width="40" height="40" fill="#f5f5f5"/>
  <rect x="400" y="0" width="40" height="40" fill="#e0e0e0"/>
  <rect x="440" y="0" width="40" height="40" fill="#f5f5f5"/>

  <!-- ... Repeated for rows ... -->
  <!-- Using a simple pattern logic: 
       (x/2)%40 == 0 ? fill#e0e0e0 : fill#f5f5f5; y/100% is irrelevant, alternating by column or row.
       Let's create visual variety by coloring even columns blue-gray and odd columns white. -->

  <!-- START AREA -->
  <!-- Using RECT for the starting zone floor tile -->
  <rect x="20" y="20" width="40" height="40" fill="#A3B1CF" stroke="none"/>
  
  <!-- Using CIRCLE for the Start Marker -->
  <circle cx="40" cy="40" r="8" fill="white" />

  <!-- End Area Construction using RECT and ELLIPSE -->
  <rect x="460" y="460" width="40" height="40" fill="#F2CCCB" stroke="none"/>
  <ellipse cx="480" cy="460" rx="15" ry="20" fill="white" />

  <!-- OBSTACLES / WALLS -->
  
  <!-- 1. Large Polyline Wall (Creating a zigzag barrier) -->
  <polyline points="40,180 90,140 130,170 180,160 230,150" 
            fill="none" stroke="black" stroke-width="4" />

  <!-- 2. Path Block using PATH (A curved arch closing the top right quadrant) -->
  <path d="M 350 10 L 370 10 Q 390 60 370 110 T 330 110 Z" 
         fill="#888" />

  <!-- 3. Polygon Obstacle (A Triangle blocking passage near the center) -->
  <polygon points="240,250 290,260 270,310" fill="#555" />

  <!-- 4. Thick Lines for standard heavy walls where precision rectangles aren't needed -->
  <!-- Wall separating Left (Start side) from Middle -->
  <line x1="80" y1="240" x2="80" y2="360" stroke="black" stroke-width="6" />

  <!-- Horizontal wall forcing a detour around the polygon obstacle -->
  <line x1="200" y1="295" x2="330" y2="295" stroke="black" stroke-width="4" />

  <!-- Bottom Barrier using Line to separate Lower grid from Upper grids -->
  <line x1="0" y1="400" x2="500" y2="400" stroke="#ccc" stroke-width="2" />

</svg>